<svg width="60" height="60" viewBox="0 0 60 60" fill="none" xmlns="http://www.w3.org/2000/svg">
<rect width="60" height="60" rx="30" transform="matrix(1 0 0 -1 0 60)" fill="url(#paint0_linear_1686_8909)"/>
<g clip-path="url(#clip0_1686_8909)">
<path d="M22.2168 10.1418C20.0888 10.2422 18.6356 10.5818 17.3652 11.081C16.0504 11.5934 14.936 12.281 13.8272 13.3938C12.7184 14.5066 12.0356 15.6218 11.5268 16.9386C11.0344 18.2118 10.7008 19.6662 10.6068 21.7954C10.5128 23.9246 10.492 24.609 10.5024 30.0402C10.5128 35.4714 10.5368 36.1522 10.64 38.2858C10.7416 40.4134 11.08 41.8662 11.5792 43.137C12.0924 44.4518 12.7792 45.5658 13.8924 46.675C15.0056 47.7842 16.12 48.4654 17.44 48.975C18.712 49.4666 20.1668 49.8018 22.2956 49.895C24.4244 49.9882 25.1096 50.0098 30.5392 49.9994C35.9688 49.989 36.6524 49.965 38.7856 49.8638C40.9188 49.7626 42.364 49.4218 43.6352 48.925C44.95 48.4106 46.0648 47.725 47.1732 46.6114C48.2816 45.4978 48.964 44.3818 49.4724 43.0642C49.9652 41.7922 50.3 40.3374 50.3924 38.2102C50.4856 36.0754 50.5076 35.3938 50.4972 29.9634C50.4868 24.533 50.4624 23.8522 50.3612 21.7194C50.26 19.5866 49.9212 18.1382 49.4224 16.8666C48.9084 15.5518 48.2224 14.4386 47.1096 13.3286C45.9968 12.2186 44.88 11.5366 43.5628 11.0294C42.29 10.537 40.836 10.2014 38.7072 10.1094C36.5784 10.0174 35.8932 9.99383 30.4616 10.0042C25.03 10.0146 24.35 10.0378 22.2168 10.1418ZM22.4504 46.297C20.5004 46.2122 19.4416 45.8882 18.736 45.617C17.8016 45.257 17.136 44.8218 16.4328 44.1254C15.7296 43.429 15.2976 42.761 14.9328 41.8286C14.6588 41.123 14.3288 40.0654 14.2376 38.1154C14.1384 36.0078 14.1176 35.375 14.106 30.0354C14.0944 24.6958 14.1148 24.0638 14.2072 21.9554C14.2904 20.007 14.6164 18.947 14.8872 18.2418C15.2472 17.3062 15.6808 16.6418 16.3788 15.939C17.0768 15.2362 17.7428 14.8034 18.676 14.4386C19.3808 14.1634 20.4384 13.8362 22.3876 13.7434C24.4968 13.6434 25.1288 13.6234 30.4676 13.6118C35.8064 13.6002 36.44 13.6202 38.55 13.713C40.4984 13.7978 41.5588 14.1206 42.2632 14.393C43.198 14.753 43.8632 15.1854 44.566 15.8846C45.2688 16.5838 45.702 17.2474 46.0668 18.1826C46.3424 18.8854 46.6696 19.9426 46.7616 21.893C46.862 24.0022 46.8848 24.6346 46.8944 29.973C46.904 35.3114 46.8852 35.9454 46.7928 38.053C46.7076 40.003 46.3844 41.0622 46.1128 41.7686C45.7528 42.7026 45.3188 43.3686 44.6204 44.071C43.922 44.7734 43.2568 45.2062 42.3232 45.571C41.6192 45.8458 40.5604 46.1738 38.6128 46.2666C36.5036 46.3658 35.8716 46.3866 30.5308 46.3982C25.19 46.4098 24.56 46.3882 22.4508 46.297M38.7548 19.3126C38.7556 19.7873 38.8972 20.2511 39.1616 20.6454C39.426 21.0397 39.8014 21.3466 40.2403 21.5275C40.6792 21.7084 41.1618 21.7551 41.6273 21.6617C42.0927 21.5682 42.5199 21.3389 42.855 21.0026C43.19 20.6663 43.4179 20.2382 43.5096 19.7724C43.6013 19.3067 43.5529 18.8242 43.3704 18.3859C43.1879 17.9477 42.8795 17.5735 42.4843 17.3105C42.0891 17.0475 41.6247 16.9077 41.15 16.9086C40.5137 16.9099 39.9038 17.1639 39.4547 17.6147C39.0055 18.0655 38.7538 18.6762 38.7548 19.3126ZM20.2308 30.0218C20.242 35.6938 24.8484 40.2814 30.5192 40.2706C36.19 40.2598 40.7808 35.6538 40.77 29.9818C40.7592 24.3098 36.1516 19.721 30.48 19.7322C24.8084 19.7434 20.22 24.3506 20.2308 30.0218ZM23.8332 30.0146C23.8306 28.6961 24.2191 27.4063 24.9495 26.3085C25.6798 25.2107 26.7194 24.3542 27.9366 23.8472C29.1538 23.3402 30.494 23.2055 31.7877 23.4602C33.0814 23.7149 34.2706 24.3475 35.2048 25.278C36.139 26.2085 36.7763 27.3951 37.0361 28.6879C37.2959 29.9806 37.1666 31.3213 36.6644 32.5405C36.1622 33.7597 35.3098 34.8026 34.2149 35.5373C33.12 36.2721 31.8318 36.6656 30.5132 36.6682C29.6377 36.6701 28.7704 36.4994 27.9608 36.166C27.1513 35.8326 26.4153 35.343 25.795 34.7251C25.1747 34.1073 24.6821 33.3733 24.3455 32.565C24.0089 31.7568 23.8349 30.8902 23.8332 30.0146Z" fill="white"/>
</g>
<defs>
<linearGradient id="paint0_linear_1686_8909" x1="51" y1="50.5" x2="7" y2="10.5" gradientUnits="userSpaceOnUse">
<stop stop-color="#CC00B7"/>
<stop offset="1" stop-color="#FF0000"/>
</linearGradient>
<clipPath id="clip0_1686_8909">
<rect width="40" height="40" fill="white" transform="translate(10.5 10)"/>
</clipPath>
</defs>
</svg>
