<svg width="60" height="60" viewBox="0 0 60 60" fill="none" xmlns="http://www.w3.org/2000/svg">
<rect width="60" height="60" rx="30" transform="matrix(1 0 0 -1 0 60)" fill="#FBE300"/>
<path d="M25.8044 25.2046L24.4341 29.3851L27.2371 29.3769L25.8402 25.2046C25.839 25.2008 25.8366 25.1975 25.8334 25.1951C25.8302 25.1928 25.8263 25.1915 25.8223 25.1915C25.8184 25.1915 25.8145 25.1928 25.8113 25.1951C25.808 25.1975 25.8056 25.2008 25.8044 25.2046Z" fill="#3B1E1E"/>
<path d="M29.8071 12.7582C19.2119 12.7887 10.6422 19.6 10.6666 27.9693C10.6821 33.351 14.2472 38.0677 19.6071 40.7412L17.8184 47.5012C17.7804 47.6137 17.7798 47.7355 17.8168 47.8484C17.8538 47.9613 17.9263 48.0592 18.0235 48.1274C18.1208 48.1956 18.2375 48.2306 18.3562 48.2269C18.475 48.2233 18.5893 48.1814 18.6822 48.1073L26.4446 42.8352C27.5875 42.995 28.7404 43.0735 29.8946 43.07C40.4896 43.0395 49.0594 36.2298 49.0354 27.8592C49.0114 19.4885 40.4022 12.7278 29.8071 12.7582ZM20.1779 31.9547C20.1796 32.5467 19.8291 32.9158 19.2627 32.9175C18.6964 32.9192 18.3446 32.552 18.3429 31.96L18.3237 25.2958L16.3936 25.3015C15.7881 25.3032 15.5719 24.8547 15.5707 24.47C15.5671 24.3606 15.5857 24.2517 15.6252 24.1496C15.6648 24.0476 15.7246 23.9547 15.801 23.8763C15.8774 23.798 15.9688 23.7359 16.0698 23.6938C16.1708 23.6517 16.2793 23.6305 16.3887 23.6313L22.0829 23.6147C22.1924 23.613 22.3011 23.6335 22.4024 23.6749C22.5038 23.7164 22.5957 23.7778 22.6727 23.8557C22.7498 23.9335 22.8103 24.0261 22.8506 24.1279C22.891 24.2296 22.9103 24.3385 22.9076 24.448C22.9086 24.8325 22.6946 25.2823 22.0877 25.284L20.1587 25.2897L20.1779 31.9547ZM29.0597 32.89C28.8594 32.9067 28.6595 32.8522 28.4954 32.7361C28.3313 32.62 28.2134 32.4497 28.1626 32.2552L27.7577 31.0013L23.9232 31.0123L23.5157 32.2542C23.4721 32.4508 23.359 32.6252 23.1973 32.7454C23.0356 32.8656 22.836 32.9235 22.6351 32.9085C22.5198 32.9136 22.4047 32.8956 22.2964 32.8556C22.1882 32.8156 22.089 32.7545 22.0047 32.6757C21.9204 32.597 21.8526 32.5022 21.8054 32.3969C21.7581 32.2916 21.7323 32.178 21.7296 32.0627C21.7309 31.9241 21.7592 31.7872 21.8129 31.6595L24.4562 24.5958C24.6456 24.078 25.1026 23.5247 25.8182 23.5227C26.4471 23.5208 26.9464 23.9083 27.1881 24.5858L29.7901 31.6233C29.8499 31.7738 29.8854 31.9327 29.8952 32.0943C29.8937 32.2018 29.8708 32.3078 29.8278 32.4063C29.7848 32.5048 29.7225 32.5937 29.6447 32.6678C29.5669 32.7419 29.4751 32.7997 29.3746 32.8379C29.2742 32.876 29.1671 32.8938 29.0597 32.89ZM36.1074 31.9652C36.103 32.0755 36.0769 32.1838 36.0306 32.284C35.9842 32.3842 35.9185 32.4742 35.8372 32.5489C35.7559 32.6236 35.6607 32.6815 35.5569 32.7193C35.4532 32.7571 35.343 32.774 35.2327 32.769L31.8124 32.7787C31.2124 32.7805 30.8519 32.4017 30.8501 31.7658L30.8291 24.4658C30.8274 23.8748 31.1781 23.5065 31.7442 23.505C32.3104 23.5035 32.6626 23.8695 32.6644 24.4607L32.6834 31.1062L35.2281 31.0988C35.3499 31.0929 35.4716 31.1125 35.5855 31.1561C35.6993 31.1998 35.8029 31.2667 35.8896 31.3525C35.9655 31.4345 36.0241 31.5311 36.0615 31.6364C36.099 31.7417 36.1146 31.8536 36.1074 31.9652ZM43.7487 32.1267C43.6791 32.7952 43.0321 32.8488 42.8351 32.8493C42.7872 32.8495 42.7394 32.8473 42.6917 32.8427C42.3527 32.8093 42.1616 32.5965 41.8061 32.1195L39.3857 28.8398L38.7282 29.5142L38.7354 31.9848C38.7357 32.1034 38.7119 32.2208 38.6656 32.3299C38.6193 32.4391 38.5514 32.5377 38.4659 32.6199C38.3804 32.702 38.2792 32.766 38.1683 32.808C38.0574 32.85 37.9392 32.8691 37.8207 32.8642C37.2707 32.8658 36.9011 32.5142 36.8996 31.99L36.8777 24.3942C36.8742 24.2733 36.8956 24.153 36.9405 24.0407C36.9855 23.9285 37.053 23.8266 37.139 23.7416C37.225 23.6566 37.3275 23.5901 37.4403 23.5464C37.553 23.5027 37.6736 23.4826 37.7944 23.4875C37.9157 23.4792 38.0374 23.4968 38.1515 23.5389C38.2656 23.581 38.3695 23.6468 38.4564 23.7319C38.5433 23.817 38.6111 23.9196 38.6556 24.0328C38.7 24.146 38.72 24.2673 38.7142 24.3888L38.7226 27.3297L41.9451 23.951C42.0376 23.8485 42.1498 23.7658 42.2751 23.7079C42.4004 23.6499 42.5361 23.6178 42.6741 23.6137C43.1176 23.6242 43.5644 23.9175 43.5542 24.4573C43.5542 24.7097 43.4042 24.8767 43.1042 25.2092C43.0364 25.2845 42.9616 25.3675 42.8806 25.4605L40.6777 27.6958L43.3009 31.11C43.5719 31.4615 43.7966 31.7523 43.7487 32.1267Z" fill="#3B1E1E"/>
</svg>
