<svg width="60" height="60" viewBox="0 0 60 60" fill="none" xmlns="http://www.w3.org/2000/svg">
<g clip-path="url(#clip0_1686_8920)">
<path d="M30 60C46.5685 60 60 46.5685 60 30C60 13.4315 46.5685 0 30 0C13.4315 0 0 13.4315 0 30C0 46.5685 13.4315 60 30 60Z" fill="url(#paint0_linear_1686_8920)"/>
<path d="M13.5797 29.6839C22.3252 25.8739 28.1569 23.3618 31.0749 22.1482C39.4064 18.6828 41.1375 18.0809 42.2658 18.0607C42.5143 18.0565 43.0688 18.1179 43.4283 18.41C43.7321 18.6561 43.8155 18.9889 43.8554 19.2223C43.8952 19.4557 43.9449 19.9878 43.9055 20.4036C43.4541 25.1473 41.5008 36.6584 40.5071 41.9717C40.0861 44.2198 39.2583 44.9736 38.4563 45.0472C36.7144 45.2075 35.3916 43.8959 33.7041 42.7901C31.0636 41.059 29.5721 39.9818 27.0089 38.2929C24.0469 36.3411 25.9674 35.2681 27.6554 33.515C28.0969 33.0556 35.7732 26.074 35.9213 25.4407C35.94 25.3615 35.9574 25.0662 35.7821 24.9106C35.6063 24.7545 35.3475 24.8075 35.161 24.8501C34.8961 24.9101 30.6779 27.6982 22.5066 33.214C21.3094 34.0362 20.2247 34.437 19.2535 34.4159C18.1819 34.3925 16.1218 33.8103 14.5894 33.3125C12.7111 32.7017 11.2177 32.3787 11.348 31.3414C11.4155 30.8014 12.1594 30.2492 13.5797 29.6839Z" fill="white"/>
</g>
<defs>
<linearGradient id="paint0_linear_1686_8920" x1="30" y1="0" x2="30" y2="59.5548" gradientUnits="userSpaceOnUse">
<stop stop-color="#2AABEE"/>
<stop offset="1" stop-color="#229ED9"/>
</linearGradient>
<clipPath id="clip0_1686_8920">
<rect width="60" height="60" fill="white"/>
</clipPath>
</defs>
</svg>
