<svg width="60" height="60" viewBox="0 0 60 60" fill="none" xmlns="http://www.w3.org/2000/svg">
<rect width="60" height="60" rx="30" transform="matrix(1 0 0 -1 0 60)" fill="black"/>
<path d="M39.2368 28.5392C39.0636 28.4562 38.8887 28.3768 38.7122 28.301C38.4035 22.6121 35.2949 19.3552 30.0753 19.3219H30.0045C26.8824 19.3219 24.286 20.6544 22.6878 23.0794L25.5585 25.0485C26.7522 23.2371 28.626 22.851 30.006 22.851H30.0537C31.7722 22.8621 33.0691 23.3619 33.9085 24.3363C34.5193 25.0456 34.9278 26.026 35.1301 27.2633C33.6064 27.0044 31.9585 26.9246 30.1968 27.0258C25.2343 27.3115 22.0439 30.2058 22.2583 34.2275C22.367 36.2675 23.3833 38.0225 25.1197 39.169C26.5878 40.1381 28.4789 40.6121 30.4441 40.5048C33.0395 40.3625 35.0755 39.3723 36.496 37.5617C37.5747 36.1867 38.257 34.4048 38.5583 32.1596C39.7951 32.906 40.7118 33.8883 41.218 35.0692C42.0789 37.0765 42.1291 40.375 39.4376 43.0642C37.0795 45.42 34.2449 46.4392 29.961 46.4706C25.2091 46.4354 21.6151 44.9115 19.2787 41.941C17.0908 39.1596 15.9599 35.1421 15.9176 30C15.9599 24.8579 17.0905 20.8404 19.2787 18.059C21.6153 15.0885 25.2091 13.5646 29.961 13.5292C34.7474 13.5646 38.4039 15.0958 40.8299 18.0806C42.0195 19.5444 42.9164 21.3848 43.5076 23.531L46.8716 22.6335C46.1549 19.9919 45.0272 17.7156 43.4926 15.8277C40.3824 12.0015 35.8337 10.0406 29.9728 10H29.9493C24.1003 10.0404 19.6024 12.0087 16.5808 15.85C13.892 19.2677 12.5049 24.024 12.4585 29.9858L12.4583 30V30.014C12.5049 35.9758 13.892 40.7321 16.5808 44.1502C19.6024 47.9912 24.1003 49.9596 29.9493 50H29.9728C35.1728 49.964 38.8383 48.6025 41.8578 45.5856C45.8085 41.6388 45.6895 36.6915 44.3874 33.6544C43.4533 31.4765 41.6722 29.7075 39.2368 28.5392ZM30.2583 36.9806C28.0833 37.1031 25.8237 36.1269 25.7124 34.0358C25.6297 32.4854 26.8158 30.7554 30.3918 30.5494C30.8014 30.5256 31.2033 30.5142 31.598 30.5142C32.897 30.5142 34.1122 30.6404 35.217 30.8819C34.8049 36.0281 32.3878 36.8638 30.2583 36.9806Z" fill="white"/>
</svg>
