<svg width="167" height="32" viewBox="0 0 167 32" fill="none" xmlns="http://www.w3.org/2000/svg">
<path d="M0 0.523318C0 0.308699 0.173569 0.134717 0.387677 0.134717H25.9744C26.1885 0.134717 26.3621 0.308699 26.3621 0.523318V7.51814C26.3621 7.73276 26.1885 7.90674 25.9744 7.90674H0.387678C0.173569 7.90674 0 7.73276 0 7.51814V0.523318Z" fill="#111111"/>
<path d="M24.036 21.1192C24.036 27.1285 19.1761 32 13.181 32C7.186 32 2.32606 27.1285 2.32606 21.1192C2.32606 15.1099 7.186 10.2383 13.181 10.2383C19.1761 10.2383 24.036 15.1099 24.036 21.1192Z" fill="#111111"/>
<path d="M42.337 8.12435C44.2943 8.12435 46.0724 8.60795 47.6714 9.57513C49.2704 10.5147 50.5247 11.8549 51.4345 13.5959C52.3718 15.3092 52.8404 17.3126 52.8404 19.6062C52.8404 21.8998 52.3718 23.9171 51.4345 25.658C50.5247 27.3713 49.2704 28.7116 47.6714 29.6788C46.0724 30.6183 44.2943 31.0881 42.337 31.0881C39.4147 31.0881 37.1955 30.1209 35.6792 28.1865V30.7565H29.8072V0H35.9687V10.8187C37.5125 9.02245 39.6353 8.12435 42.337 8.12435ZM41.2618 25.7824C42.8332 25.7824 44.1151 25.2297 45.1076 24.1244C46.1276 22.9914 46.6376 21.4853 46.6376 19.6062C46.6376 17.7271 46.1276 16.2349 45.1076 15.1295C44.1151 13.9965 42.8332 13.4301 41.2618 13.4301C39.6904 13.4301 38.3947 13.9965 37.3747 15.1295C36.3822 16.2349 35.886 17.7271 35.886 19.6062C35.886 21.4853 36.3822 22.9914 37.3747 24.1244C38.3947 25.2297 39.6904 25.7824 41.2618 25.7824Z" fill="#111111"/>
<path d="M78.2081 30.7565H72.3361V28.1865C70.8198 30.1209 68.6282 31.0881 65.7611 31.0881C63.7762 31.0881 61.9705 30.6183 60.3439 29.6788C58.745 28.7392 57.4768 27.399 56.5395 25.658C55.6298 23.9171 55.1749 21.8998 55.1749 19.6062C55.1749 17.3126 55.6298 15.2953 56.5395 13.5544C57.4768 11.8135 58.745 10.4732 60.3439 9.53368C61.9705 8.59413 63.7762 8.12435 65.7611 8.12435C68.4628 8.12435 70.5717 9.02245 72.088 10.8187V8.45078H78.2081V30.7565ZM66.8362 25.7824C68.3801 25.7824 69.662 25.2297 70.682 24.1244C71.702 22.9914 72.212 21.4853 72.212 19.6062C72.212 17.7271 71.702 16.2349 70.682 15.1295C69.662 13.9965 68.3801 13.4301 66.8362 13.4301C65.2373 13.4301 63.9278 13.9965 62.9078 15.1295C61.8877 16.2349 61.3777 17.7271 61.3777 19.6062C61.3777 21.4853 61.8877 22.9914 62.9078 24.1244C63.9278 25.2297 65.2373 25.7824 66.8362 25.7824Z" fill="#111111"/>
<path d="M88.6323 0V30.7565H82.4708V0H88.6323Z" fill="#111111"/>
<path d="M114.201 19.6891C114.201 19.772 114.159 20.3523 114.077 21.4301H98.1147C98.418 22.8117 99.0934 23.9033 100.141 24.7047C101.216 25.506 102.553 25.9067 104.152 25.9067C105.255 25.9067 106.22 25.7409 107.047 25.4093C107.901 25.0501 108.701 24.4974 109.445 23.7513L112.712 27.4819C110.7 29.886 107.791 31.0881 103.987 31.0881C101.588 31.0881 99.4655 30.6045 97.6185 29.6373C95.799 28.6425 94.393 27.2746 93.4005 25.5337C92.4081 23.7927 91.9119 21.8169 91.9119 19.6062C91.9119 17.4231 92.3943 15.4611 93.3592 13.7202C94.3516 11.9516 95.7025 10.5838 97.4117 9.61658C99.1485 8.62176 101.078 8.12435 103.201 8.12435C105.269 8.12435 107.129 8.59413 108.784 9.53368C110.465 10.4732 111.789 11.8273 112.753 13.5959C113.718 15.3368 114.201 17.3679 114.201 19.6891ZM103.242 13.0155C101.864 13.0155 100.692 13.4301 99.7274 14.2591C98.7901 15.0881 98.225 16.2211 98.032 17.658H108.411C108.191 16.2487 107.612 15.1295 106.675 14.3005C105.765 13.4439 104.621 13.0155 103.242 13.0155Z" fill="#111111"/>
<path d="M130.295 8.12435C132.942 8.12435 135.064 8.95337 136.663 10.6114C138.262 12.2694 139.062 14.7288 139.062 17.9896V30.7565H132.942V18.9845C132.942 17.2159 132.569 15.9033 131.825 15.0466C131.081 14.1624 130.019 13.7202 128.641 13.7202C127.097 13.7202 125.87 14.2314 124.961 15.2539C124.051 16.2487 123.596 17.7409 123.596 19.7306V30.7565H117.434V8.45596H123.306V11.0674C124.134 10.1278 125.14 9.40933 126.325 8.91192C127.538 8.38687 128.861 8.12435 130.295 8.12435Z" fill="#111111"/>
<path d="M161.157 30.7565H142.301V26.8601L153.094 13.4301H142.59V8.45596H160.827V12.3523L150.034 25.7824H161.157V30.7565Z" fill="#111111"/>
<path d="M161.265 6.64163V6.28325H163.634V6.64163H162.652V9.3057H162.247V6.64163H161.265Z" fill="#111111"/>
<path d="M166.612 7.0475L165.566 8.93437H165.38L164.334 7.0734V9.3057H163.95V6.28325H164.282L165.479 8.42056L166.664 6.28325H166.996L167 9.3057H166.617L166.612 7.0475Z" fill="#111111"/>
</svg>
