<svg width="134" height="134" viewBox="0 0 134 134" fill="none" xmlns="http://www.w3.org/2000/svg">
<g filter="url(#filter0_d_694_11259)">
<g clip-path="url(#clip0_694_11259)">
<rect x="16.6665" y="10" width="100" height="100" rx="16.6667" fill="#FCFCFC"/>
<path d="M16.666 32.7765C16.666 22.0376 25.3716 13.332 36.1105 13.332L97.2216 13.332C107.96 13.332 116.666 22.0376 116.666 32.7765V59.4431H16.666V32.7765Z" fill="#F3F3F3"/>
<g filter="url(#filter1_d_694_11259)">
<path d="M16.6665 86.1102C16.6665 96.8491 25.3721 105.555 36.1109 105.555H97.2221C107.961 105.555 116.667 96.8491 116.667 86.1102V59.4436H16.6665V86.1102Z" fill="#FCFCFC"/>
</g>
<path d="M64.6915 80.1113H33.6421V76.0373L51.2347 58.8768C53.3746 56.778 54.8149 54.9879 55.5557 53.5064C56.3376 52.0249 56.7285 50.5228 56.7285 49.0002C56.7285 46.6957 55.9466 44.9056 54.3828 43.6298C52.819 42.313 50.5351 41.6545 47.531 41.6545C42.7573 41.6545 39.0948 43.2389 36.5433 46.4076L32.1606 43.3212C33.8067 41.1401 35.9878 39.4529 38.7038 38.2595C41.4199 37.0249 44.5269 36.4076 48.0248 36.4076C52.5104 36.4076 56.0906 37.4982 58.7655 39.6792C61.4816 41.8191 62.8396 44.741 62.8396 48.4447C62.8396 50.708 62.3458 52.8685 61.3581 54.9261C60.3705 56.9426 58.4981 59.2677 55.7409 61.9015L42.4075 74.9261H64.6915V80.1113ZM88.5367 53.8768C91.3351 53.8768 93.8454 54.4117 96.0676 55.4817C98.2898 56.5517 100.018 58.0949 101.253 60.1113C102.528 62.0866 103.166 64.3706 103.166 66.9632C103.166 69.6792 102.487 72.0661 101.129 74.1237C99.8124 76.1813 98.0017 77.7862 95.6972 78.9385C93.3927 80.0496 90.8001 80.6052 87.9194 80.6052C82.117 80.6052 77.6314 78.7327 74.4626 74.9879C71.2939 71.2019 69.7096 65.8726 69.7096 59.0002C69.7096 54.1854 70.5532 50.0908 72.2404 46.7163C73.9688 43.3006 76.3556 40.7286 79.4009 39.0002C82.4873 37.2718 86.0676 36.4076 90.1417 36.4076C94.5861 36.4076 98.1869 37.2718 100.944 39.0002L98.5367 43.5681C96.5203 42.2101 93.7631 41.5311 90.2651 41.5311C86.1499 41.5311 82.8371 42.7656 80.3268 45.2348C77.8165 47.6628 76.3968 51.2019 76.0676 55.8521C76.0264 56.2224 76.0058 56.8809 76.0058 57.8274C76.0058 59.0619 76.047 60.0084 76.1293 60.6669C77.1581 58.4858 78.7631 56.8191 80.9441 55.6669C83.1252 54.4735 85.6561 53.8768 88.5367 53.8768ZM87.6108 75.7903C90.4914 75.7903 92.8165 75.0084 94.5861 73.4447C96.3556 71.8809 97.2404 69.8027 97.2404 67.2101C97.2404 64.6175 96.3351 62.5393 94.5244 60.9755C92.7548 59.4117 90.368 58.6298 87.3639 58.6298C85.3886 58.6298 83.6396 59.0208 82.117 59.8027C80.5943 60.5434 79.4009 61.5722 78.5367 62.8891C77.7137 64.206 77.3021 65.6669 77.3021 67.2718C77.3021 68.7945 77.6931 70.2142 78.475 71.5311C79.298 72.8068 80.4914 73.8356 82.0552 74.6175C83.619 75.3994 85.4709 75.7903 87.6108 75.7903Z" fill="#767676"/>
<rect x="16.6665" y="30.5566" width="100" height="28.8889" fill="url(#paint0_linear_694_11259)"/>
</g>
</g>
<defs>
<filter id="filter0_d_694_11259" x="-0.000162125" y="4.76837e-07" width="133.333" height="133.333" filterUnits="userSpaceOnUse" color-interpolation-filters="sRGB">
<feFlood flood-opacity="0" result="BackgroundImageFix"/>
<feColorMatrix in="SourceAlpha" type="matrix" values="0 0 0 0 0 0 0 0 0 0 0 0 0 0 0 0 0 0 127 0" result="hardAlpha"/>
<feOffset dy="6.66667"/>
<feGaussianBlur stdDeviation="8.33333"/>
<feComposite in2="hardAlpha" operator="out"/>
<feColorMatrix type="matrix" values="0 0 0 0 0 0 0 0 0 0 0 0 0 0 0 0 0 0 0.25 0"/>
<feBlend mode="normal" in2="BackgroundImageFix" result="effect1_dropShadow_694_11259"/>
<feBlend mode="normal" in="SourceGraphic" in2="effect1_dropShadow_694_11259" result="shape"/>
</filter>
<filter id="filter1_d_694_11259" x="11.1109" y="56.6656" width="111.111" height="57.2224" filterUnits="userSpaceOnUse" color-interpolation-filters="sRGB">
<feFlood flood-opacity="0" result="BackgroundImageFix"/>
<feColorMatrix in="SourceAlpha" type="matrix" values="0 0 0 0 0 0 0 0 0 0 0 0 0 0 0 0 0 0 127 0" result="hardAlpha"/>
<feOffset dy="2.77778"/>
<feGaussianBlur stdDeviation="2.77778"/>
<feComposite in2="hardAlpha" operator="out"/>
<feColorMatrix type="matrix" values="0 0 0 0 0 0 0 0 0 0 0 0 0 0 0 0 0 0 0.25 0"/>
<feBlend mode="normal" in2="BackgroundImageFix" result="effect1_dropShadow_694_11259"/>
<feBlend mode="normal" in="SourceGraphic" in2="effect1_dropShadow_694_11259" result="shape"/>
</filter>
<linearGradient id="paint0_linear_694_11259" x1="66.6665" y1="30.5566" x2="66.6665" y2="59.4455" gradientUnits="userSpaceOnUse">
<stop stop-color="white" stop-opacity="0"/>
<stop offset="1" stop-opacity="0.1"/>
</linearGradient>
<clipPath id="clip0_694_11259">
<rect x="16.6665" y="10" width="100" height="100" rx="16.6667" fill="white"/>
</clipPath>
</defs>
</svg>
